<svg viewBox="0 0 1000 1000" xmlns="http://www.w3.org/2000/svg">
<path d="M500,500" fill="none" stroke="black" stroke-width="1"/>
<text fill="black" style="font: 0px sans-serif;" transform="rotate(-90 500,500)" x="500" y="500">
Logo
</text>
<path d="M500,500" fill="none" stroke="black" stroke-width="1"/>
<text fill="black" style="font: 1px sans-serif;" transform="rotate(-80 500.0058,499.96716)" x="500.0058" y="499.96716">
Logo
</text>
<path d="M500,500" fill="none" stroke="black" stroke-width="1"/>
<text fill="black" style="font: 2px sans-serif;" transform="rotate(-70 500.0456,499.8747)" x="500.0456" y="499.8747">
Logo
</text>
<path d="M500,500" fill="none" stroke="black" stroke-width="1"/>
<text fill="black" style="font: 3px sans-serif;" transform="rotate(-60.000008 500.15,499.7402)" x="500.15" y="499.7402">
Logo
</text>
<path d="M500,500" fill="none" stroke="black" stroke-width="1"/>
<text fill="black" style="font: 4px sans-serif;" transform="rotate(-50.000004 500.34283,499.59143)" x="500.34283" y="499.59143">
Logo
</text>
<path d="M500,500" fill="none" stroke="black" stroke-width="1"/>
<text fill="black" style="font: 5px sans-serif;" transform="rotate(-40.000004 500.63837,499.46436)" x="500.63837" y="499.46436">
Logo
</text>
<path d="M500,500" fill="none" stroke="black" stroke-width="1"/>
<text fill="black" style="font: 6px sans-serif;" transform="rotate(-30.000004 501.03925,499.4)" x="501.03925" y="499.4">
Logo
</text>
<path d="M500,500" fill="none" stroke="black" stroke-width="1"/>
<text fill="black" style="font: 7px sans-serif;" transform="rotate(-20.000002 501.53482,499.44138)" x="501.53482" y="499.44138">
Logo
</text>
<path d="M500,500" fill="none" stroke="black" stroke-width="1"/>
<text fill="black" style="font: 8px sans-serif;" transform="rotate(-10.000002 502.10092,499.62955)" x="502.10092" y="499.62955">
Logo
</text>
<path d="M500,500" fill="none" stroke="black" stroke-width="1"/>
<text fill="black" style="font: 9px sans-serif;" transform="rotate(-0.0000017075472 502.7,500)" x="502.7" y="500">
Logo
</text>
<path d="M500,500" fill="none" stroke="black" stroke-width="1"/>
<text fill="black" style="font: 10px sans-serif;" transform="rotate(9.999998 503.28268,500.57883)" x="503.28268" y="500.57883">
Logo
</text>
<path d="M500,500" fill="none" stroke="black" stroke-width="1"/>
<text fill="black" style="font: 11px sans-serif;" transform="rotate(20 503.7901,501.3795)" x="503.7901" y="501.3795">
Logo
</text>
<path d="M500,500" fill="none" stroke="black" stroke-width="1"/>
<text fill="black" style="font: 12px sans-serif;" transform="rotate(30 504.15692,502.4)" x="504.15692" y="502.4">
Logo
</text>
<path d="M500,500" fill="none" stroke="black" stroke-width="1"/>
<text fill="black" style="font: 13px sans-serif;" transform="rotate(40 504.31537,503.62103)" x="504.31537" y="503.62103">
Logo
</text>
<path d="M500,500" fill="none" stroke="black" stroke-width="1"/>
<text fill="black" style="font: 14px sans-serif;" transform="rotate(50.000004 504.19955,505.00482)" x="504.19955" y="505.00482">
Logo
</text>
<path d="M500,500" fill="none" stroke="black" stroke-width="1"/>
<text fill="black" style="font: 15px sans-serif;" transform="rotate(60 503.75,506.49518)" x="503.75" y="506.49518">
Logo
</text>
<path d="M500,500" fill="none" stroke="black" stroke-width="1"/>
<text fill="black" style="font: 16px sans-serif;" transform="rotate(70 502.91858,508.0187)" x="502.91858" y="508.0187">
Logo
</text>
<path d="M500,500" fill="none" stroke="black" stroke-width="1"/>
<text fill="black" style="font: 17px sans-serif;" transform="rotate(80 501.67282,509.48697)" x="501.67282" y="509.48697">
Logo
</text>
<path d="M500,500" fill="none" stroke="black" stroke-width="1"/>
<text fill="black" style="font: 18px sans-serif;" transform="rotate(89.99999 500,510.8)" x="500" y="510.8">
Logo
</text>
<path d="M500,500" fill="none" stroke="black" stroke-width="1"/>
<text fill="black" style="font: 19px sans-serif;" transform="rotate(99.99999 497.91043,511.85052)" x="497.91043" y="511.85052">
Logo
</text>
<path d="M500,500" fill="none" stroke="black" stroke-width="1"/>
<text fill="black" style="font: 20px sans-serif;" transform="rotate(109.999985 495.43973,512.52924)" x="495.43973" y="512.52924">
Logo
</text>
<path d="M500,500" fill="none" stroke="black" stroke-width="1"/>
<text fill="black" style="font: 21px sans-serif;" transform="rotate(119.999985 492.65,512.7306)" x="492.65" y="512.7306">
Logo
</text>
<path d="M500,500.00003" fill="none" stroke="black" stroke-width="1"/>
<text fill="black" style="font: 22px sans-serif;" transform="rotate(129.99998 489.6297,512.3589)" x="489.6297" y="512.3589">
Logo
</text>
<path d="M500,500.00003" fill="none" stroke="black" stroke-width="1"/>
<text fill="black" style="font: 23px sans-serif;" transform="rotate(139.99998 486.4921,511.33453)" x="486.4921" y="511.33453">
Logo
</text>
<path d="M500,500.00003" fill="none" stroke="black" stroke-width="1"/>
<text fill="black" style="font: 24px sans-serif;" transform="rotate(149.99998 483.3723,509.60004)" x="483.3723" y="509.60004">
Logo
</text>
<path d="M500,500.00003" fill="none" stroke="black" stroke-width="1"/>
<text fill="black" style="font: 25px sans-serif;" transform="rotate(159.99997 480.42307,507.12546)" x="480.42307" y="507.12546">
Logo
</text>
<path d="M500,500.00003" fill="none" stroke="black" stroke-width="1"/>
<text fill="black" style="font: 26px sans-serif;" transform="rotate(169.99997 477.809,503.9129)" x="477.809" y="503.9129">
Logo
</text>
<path d="M500,500.00003" fill="none" stroke="black" stroke-width="1"/>
<text fill="black" style="font: 27px sans-serif;" transform="rotate(179.99998 475.7,500.00003)" x="475.7" y="500.00003">
Logo
</text>
<path d="M500,500.00003" fill="none" stroke="black" stroke-width="1"/>
<text fill="black" style="font: 28px sans-serif;" transform="rotate(189.99997 474.2637,495.46204)" x="474.2637" y="495.46204">
Logo
</text>
<path d="M500,500.00003" fill="none" stroke="black" stroke-width="1"/>
<text fill="black" style="font: 29px sans-serif;" transform="rotate(199.99995 473.6573,490.41208)" x="473.6573" y="490.41208">
Logo
</text>
<path d="M500,500.00003" fill="none" stroke="black" stroke-width="1"/>
<text fill="black" style="font: 30px sans-serif;" transform="rotate(209.99997 474.01923,485.00003)" x="474.01923" y="485.00003">
Logo
</text>
<path d="M500,500.00003" fill="none" stroke="black" stroke-width="1"/>
<text fill="black" style="font: 31px sans-serif;" transform="rotate(219.99995 475.46103,479.40942)" x="475.46103" y="479.40942">
Logo
</text>
<path d="M500,500.00003" fill="none" stroke="black" stroke-width="1"/>
<text fill="black" style="font: 32px sans-serif;" transform="rotate(229.99997 478.0595,473.8524)" x="478.0595" y="473.8524">
Logo
</text>
<path d="M500,500.00003" fill="none" stroke="black" stroke-width="1"/>
<text fill="black" style="font: 33px sans-serif;" transform="rotate(239.99997 481.84998,468.56332)" x="481.84998" y="468.56332">
Logo
</text>
<path d="M500,500.00003" fill="none" stroke="black" stroke-width="1"/>
<text fill="black" style="font: 34px sans-serif;" transform="rotate(249.99997 486.8208,463.79056)" x="486.8208" y="463.79056">
Logo
</text>
<path d="M500,500.00003" fill="none" stroke="black" stroke-width="1"/>
<text fill="black" style="font: 35px sans-serif;" transform="rotate(259.99997 492.90936,459.78705)" x="492.90936" y="459.78705">
Logo
</text>
<path d="M500,500.00003" fill="none" stroke="black" stroke-width="1"/>
<text fill="black" style="font: 36px sans-serif;" transform="rotate(269.99997 499.99997,456.80002)" x="499.99997" y="456.80002">
Logo
</text>
<path d="M500,500.00003" fill="none" stroke="black" stroke-width="1"/>
<text fill="black" style="font: 37px sans-serif;" transform="rotate(279.99997 507.92413,455.05997)" x="507.92413" y="455.05997">
Logo
</text>
<path d="M500,500.00003" fill="none" stroke="black" stroke-width="1"/>
<text fill="black" style="font: 38px sans-serif;" transform="rotate(289.99997 516.4625,454.76947)" x="516.4625" y="454.76947">
Logo
</text>
<path d="M499.99997,500.00003" fill="none" stroke="black" stroke-width="1"/>
<text fill="black" style="font: 39px sans-serif;" transform="rotate(299.99997 525.35,456.09253)" x="525.35" y="456.09253">
Logo
</text>
<path d="M500,500.00003" fill="none" stroke="black" stroke-width="1"/>
<text fill="black" style="font: 40px sans-serif;" transform="rotate(309.99997 534.282,459.14432)" x="534.282" y="459.14432">
Logo
</text>
<path d="M500,500.00003" fill="none" stroke="black" stroke-width="1"/>
<text fill="black" style="font: 41px sans-serif;" transform="rotate(319.99994 542.924,463.98248)" x="542.924" y="463.98248">
Logo
</text>
<path d="M500,500.00003" fill="none" stroke="black" stroke-width="1"/>
<text fill="black" style="font: 42px sans-serif;" transform="rotate(329.99997 550.9223,470.6)" x="550.9223" y="470.6">
Logo
</text>
<path d="M500.00003,500.00003" fill="none" stroke="black" stroke-width="1"/>
<text fill="black" style="font: 43px sans-serif;" transform="rotate(339.99994 557.9164,478.92014)" x="557.9164" y="478.92014">
Logo
</text>
<path d="M500,500.00003" fill="none" stroke="black" stroke-width="1"/>
<text fill="black" style="font: 44px sans-serif;" transform="rotate(349.99994 563.5529,488.79388)" x="563.5529" y="488.79388">
Logo
</text>
<path d="M500,500.00003" fill="none" stroke="black" stroke-width="1"/>
<text fill="black" style="font: 45px sans-serif;" transform="rotate(359.99997 567.5,499.99997)" x="567.5" y="499.99997">
Logo
</text>
<path d="M500,500.00003" fill="none" stroke="black" stroke-width="1"/>
<text fill="black" style="font: 46px sans-serif;" transform="rotate(369.99994 569.4618,512.248)" x="569.4618" y="512.248">
Logo
</text>
<path d="M500,500.00006" fill="none" stroke="black" stroke-width="1"/>
<text fill="black" style="font: 47px sans-serif;" transform="rotate(379.99994 569.19275,525.1841)" x="569.19275" y="525.1841">
Logo
</text>
<path d="M500.00003,500.00006" fill="none" stroke="black" stroke-width="1"/>
<text fill="black" style="font: 48px sans-serif;" transform="rotate(389.99994 566.5108,538.4)" x="566.5108" y="538.4">
Logo
</text>
<path d="M500,500.0001" fill="none" stroke="black" stroke-width="1"/>
<text fill="black" style="font: 49px sans-serif;" transform="rotate(399.9999 561.30914,551.44446)" x="561.30914" y="551.44446">
Logo
</text>
<path d="M500,500.0001" fill="none" stroke="black" stroke-width="1"/>
<text fill="black" style="font: 50px sans-serif;" transform="rotate(409.99994 553.5657,563.8371)" x="553.5657" y="563.8371">
Logo
</text>
<path d="M499.99997,500.00012" fill="none" stroke="black" stroke-width="1"/>
<text fill="black" style="font: 51px sans-serif;" transform="rotate(419.99994 543.35004,575.0845)" x="543.35004" y="575.0845">
Logo
</text>
<path d="M499.99997,500.00012" fill="none" stroke="black" stroke-width="1"/>
<text fill="black" style="font: 52px sans-serif;" transform="rotate(429.99994 530.82745,584.6977)" x="530.82745" y="584.6977">
Logo
</text>
<path d="M499.99994,500.0001" fill="none" stroke="black" stroke-width="1"/>
<text fill="black" style="font: 53px sans-serif;" transform="rotate(439.9999 516.2593,592.21094)" x="516.2593" y="592.21094">
Logo
</text>
<path d="M499.9999,500.00012" fill="none" stroke="black" stroke-width="1"/>
<text fill="black" style="font: 54px sans-serif;" transform="rotate(449.99994 500,597.20013)" x="500" y="597.20013">
Logo
</text>
<path d="M499.9999,500.00012" fill="none" stroke="black" stroke-width="1"/>
<text fill="black" style="font: 55px sans-serif;" transform="rotate(459.99994 482.49045,599.3016)" x="482.49045" y="599.3016">
Logo
</text>
<path d="M499.9999,500.00012" fill="none" stroke="black" stroke-width="1"/>
<text fill="black" style="font: 56px sans-serif;" transform="rotate(469.99997 464.24747,598.2294)" x="464.24747" y="598.2294">
Logo
</text>
<path d="M499.9999,500.00015" fill="none" stroke="black" stroke-width="1"/>
<text fill="black" style="font: 57px sans-serif;" transform="rotate(479.99994 445.84998,593.7908)" x="445.84998" y="593.7908">
Logo
</text>
<path d="M499.9999,500.00018" fill="none" stroke="black" stroke-width="1"/>
<text fill="black" style="font: 58px sans-serif;" transform="rotate(489.99994 427.92206,585.89935)" x="427.92206" y="585.89935">
Logo
</text>
<path d="M499.9999,500.00018" fill="none" stroke="black" stroke-width="1"/>
<text fill="black" style="font: 59px sans-serif;" transform="rotate(499.99994 411.11328,574.585)" x="411.11328" y="574.585">
Logo
</text>
<path d="M499.9999,500.00015" fill="none" stroke="black" stroke-width="1"/>
<text fill="black" style="font: 60px sans-serif;" transform="rotate(509.99997 396.0769,560.00024)" x="396.0769" y="560.00024">
Logo
</text>
<path d="M499.9999,500.00015" fill="none" stroke="black" stroke-width="1"/>
<text fill="black" style="font: 61px sans-serif;" transform="rotate(519.99994 383.44675,542.4222)" x="383.44675" y="542.4222">
Logo
</text>
<path d="M499.9999,500.00018" fill="none" stroke="black" stroke-width="1"/>
<text fill="black" style="font: 62px sans-serif;" transform="rotate(529.99994 373.81323,522.2504)" x="373.81323" y="522.2504">
Logo
</text>
<path d="M499.9999,500.00018" fill="none" stroke="black" stroke-width="1"/>
<text fill="black" style="font: 63px sans-serif;" transform="rotate(539.99994 367.6999,500.0003)" x="367.6999" y="500.0003">
Logo
</text>
<path d="M499.99988,500.00018" fill="none" stroke="black" stroke-width="1"/>
<text fill="black" style="font: 64px sans-serif;" transform="rotate(549.99994 365.54077,476.29153)" x="365.54077" y="476.29153">
Logo
</text>
<path d="M499.99988,500.00018" fill="none" stroke="black" stroke-width="1"/>
<text fill="black" style="font: 65px sans-serif;" transform="rotate(559.99994 367.6598,451.8325)" x="367.6598" y="451.8325">
Logo
</text>
<path d="M499.99988,500.00018" fill="none" stroke="black" stroke-width="1"/>
<text fill="black" style="font: 66px sans-serif;" transform="rotate(569.99994 374.25293,427.40033)" x="374.25293" y="427.40033">
Logo
</text>
<path d="M499.99988,500.00018" fill="none" stroke="black" stroke-width="1"/>
<text fill="black" style="font: 67px sans-serif;" transform="rotate(579.99994 385.374,403.81787)" x="385.374" y="403.81787">
Logo
</text>
<path d="M499.99988,500.00018" fill="none" stroke="black" stroke-width="1"/>
<text fill="black" style="font: 68px sans-serif;" transform="rotate(589.9999 400.92474,381.9273)" x="400.92474" y="381.9273">
Logo
</text>
<path d="M499.99988,500.00018" fill="none" stroke="black" stroke-width="1"/>
<text fill="black" style="font: 69px sans-serif;" transform="rotate(599.99994 420.64972,362.56204)" x="420.64972" y="362.56204">
Logo
</text>
<path d="M499.99988,500.00018" fill="none" stroke="black" stroke-width="1"/>
<text fill="black" style="font: 70px sans-serif;" transform="rotate(609.99994 444.1364,346.51715)" x="444.1364" y="346.51715">
Logo
</text>
<path d="M499.99988,500.00018" fill="none" stroke="black" stroke-width="1"/>
<text fill="black" style="font: 71px sans-serif;" transform="rotate(619.99994 470.82098,334.51968)" x="470.82098" y="334.51968">
Logo
</text>
<path d="M499.99988,500.00018" fill="none" stroke="black" stroke-width="1"/>
<text fill="black" style="font: 72px sans-serif;" transform="rotate(629.9999 499.99966,327.2002)" x="499.99966" y="327.2002">
Logo
</text>
<path d="M499.99988,500.00018" fill="none" stroke="black" stroke-width="1"/>
<text fill="black" style="font: 73px sans-serif;" transform="rotate(639.9999 530.84534,325.06546)" x="530.84534" y="325.06546">
Logo
</text>
<path d="M499.99985,500.00018" fill="none" stroke="black" stroke-width="1"/>
<text fill="black" style="font: 74px sans-serif;" transform="rotate(649.99994 562.4297,328.47485)" x="562.4297" y="328.47485">
Logo
</text>
<path d="M499.99985,500.00018" fill="none" stroke="black" stroke-width="1"/>
<text fill="black" style="font: 75px sans-serif;" transform="rotate(659.99994 593.74963,337.6203)" x="593.74963" y="337.6203">
Logo
</text>
<path d="M499.99985,500.00018" fill="none" stroke="black" stroke-width="1"/>
<text fill="black" style="font: 76px sans-serif;" transform="rotate(669.99994 623.7577,352.51093)" x="623.7577" y="352.51093">
Logo
</text>
<path d="M499.99985,500.00018" fill="none" stroke="black" stroke-width="1"/>
<text fill="black" style="font: 77px sans-serif;" transform="rotate(679.9999 651.39557,372.9637)" x="651.39557" y="372.9637">
Logo
</text>
<path d="M499.99982,500.00018" fill="none" stroke="black" stroke-width="1"/>
<text fill="black" style="font: 78px sans-serif;" transform="rotate(689.99994 675.62964,398.5999)" x="675.62964" y="398.5999">
Logo
</text>
<path d="M499.99982,500.00018" fill="none" stroke="black" stroke-width="1"/>
<text fill="black" style="font: 79px sans-serif;" transform="rotate(699.9999 695.4871,428.8483)" x="695.4871" y="428.8483">
Logo
</text>
<path d="M499.99982,500.00018" fill="none" stroke="black" stroke-width="1"/>
<text fill="black" style="font: 80px sans-serif;" transform="rotate(709.9999 710.09204,462.95493)" x="710.09204" y="462.95493">
Logo
</text>
<path d="M499.9998,500.00018" fill="none" stroke="black" stroke-width="1"/>
<text fill="black" style="font: 81px sans-serif;" transform="rotate(719.99994 718.69977,499.99985)" x="718.69977" y="499.99985">
Logo
</text>
<path d="M499.99976,500.00018" fill="none" stroke="black" stroke-width="1"/>
<text fill="black" style="font: 82px sans-serif;" transform="rotate(729.9999 720.728,538.92017)" x="720.728" y="538.92017">
Logo
</text>
<path d="M499.99973,500.00018" fill="none" stroke="black" stroke-width="1"/>
<text fill="black" style="font: 83px sans-serif;" transform="rotate(739.9999 715.7846,578.53906)" x="715.7846" y="578.53906">
Logo
</text>
<path d="M499.99976,500.00018" fill="none" stroke="black" stroke-width="1"/>
<text fill="black" style="font: 84px sans-serif;" transform="rotate(749.9999 703.6891,617.59985)" x="703.6891" y="617.59985">
Logo
</text>
<path d="M499.99973,500.00018" fill="none" stroke="black" stroke-width="1"/>
<text fill="black" style="font: 85px sans-serif;" transform="rotate(759.9999 684.489,654.80457)" x="684.489" y="654.80457">
Logo
</text>
<path d="M499.99973,500.00018" fill="none" stroke="black" stroke-width="1"/>
<text fill="black" style="font: 86px sans-serif;" transform="rotate(769.99994 658.4686,688.8554)" x="658.4686" y="688.8554">
Logo
</text>
<path d="M499.99973,500.00018" fill="none" stroke="black" stroke-width="1"/>
<text fill="black" style="font: 87px sans-serif;" transform="rotate(779.9999 626.15015,718.49817)" x="626.15015" y="718.49817">
Logo
</text>
<path d="M499.99976,500.00018" fill="none" stroke="black" stroke-width="1"/>
<text fill="black" style="font: 88px sans-serif;" transform="rotate(789.9999 588.287,742.56604)" x="588.287" y="742.56604">
Logo
</text>
<path d="M499.99976,500.0002" fill="none" stroke="black" stroke-width="1"/>
<text fill="black" style="font: 89px sans-serif;" transform="rotate(799.9998 545.8491,760.0222)" x="545.8491" y="760.0222">
Logo
</text>
<path d="M499.99976,500.00024" fill="none" stroke="black" stroke-width="1"/>
<text fill="black" style="font: 90px sans-serif;" transform="rotate(809.9999 500.00027,770.00024)" x="500.00027" y="770.00024">
Logo
</text>
<path d="M499.99976,500.00024" fill="none" stroke="black" stroke-width="1"/>
<text fill="black" style="font: 91px sans-serif;" transform="rotate(819.9999 452.0676,771.8401)" x="452.0676" y="771.8401">
Logo
</text>
<path d="M499.99976,500.00024" fill="none" stroke="black" stroke-width="1"/>
<text fill="black" style="font: 92px sans-serif;" transform="rotate(829.9998 403.505,765.119)" x="403.505" y="765.119">
Logo
</text>
<path d="M499.99976,500.0002" fill="none" stroke="black" stroke-width="1"/>
<text fill="black" style="font: 93px sans-serif;" transform="rotate(839.9999 355.85025,749.6756)" x="355.85025" y="749.6756">
Logo
</text>
<path d="M499.99976,500.00018" fill="none" stroke="black" stroke-width="1"/>
<text fill="black" style="font: 94px sans-serif;" transform="rotate(849.9999 310.67783,725.6262)" x="310.67783" y="725.6262">
Logo
</text>
<path d="M499.99976,500.0002" fill="none" stroke="black" stroke-width="1"/>
<text fill="black" style="font: 95px sans-serif;" transform="rotate(859.9999 269.54846,693.3726)" x="269.54846" y="693.3726">
Logo
</text>
<path d="M499.99976,500.00018" fill="none" stroke="black" stroke-width="1"/>
<text fill="black" style="font: 96px sans-serif;" transform="rotate(869.9999 233.95706,653.6007)" x="233.95706" y="653.6007">
Logo
</text>
<path d="M499.99976,500.00015" fill="none" stroke="black" stroke-width="1"/>
<text fill="black" style="font: 97px sans-serif;" transform="rotate(879.9998 205.28107,607.2697)" x="205.28107" y="607.2697">
Logo
</text>
<path d="M499.99976,500.00018" fill="none" stroke="black" stroke-width="1"/>
<text fill="black" style="font: 98px sans-serif;" transform="rotate(889.9999 184.7301,555.59143)" x="184.7301" y="555.59143">
Logo
</text>
<path d="M499.99976,500.00018" fill="none" stroke="black" stroke-width="1"/>
<text fill="black" style="font: 99px sans-serif;" transform="rotate(899.9999 173.29974,500.0009)" x="173.29974" y="500.0009">
Logo
</text>
<path d="M499.99976,500.00018" fill="none" stroke="black" stroke-width="1"/>
<text fill="black" style="font: 100px sans-serif;" transform="rotate(909.9998 171.73038,442.1182)" x="171.73038" y="442.1182">
Logo
</text>
<path d="M499.99976,500.00018" fill="none" stroke="black" stroke-width="1"/>
<text fill="black" style="font: 101px sans-serif;" transform="rotate(919.9999 180.47278,383.70233)" x="180.47278" y="383.70233">
Logo
</text>
<path d="M499.99976,500.00018" fill="none" stroke="black" stroke-width="1"/>
<text fill="black" style="font: 102px sans-serif;" transform="rotate(929.99994 199.66211,326.60028)" x="199.66211" y="326.60028">
Logo
</text>
<path d="M499.99976,500.00018" fill="none" stroke="black" stroke-width="1"/>
<text fill="black" style="font: 103px sans-serif;" transform="rotate(940 229.10104,272.6889)" x="229.10104" y="272.6889">
Logo
</text>
<path d="M499.99976,500.00018" fill="none" stroke="black" stroke-width="1"/>
<text fill="black" style="font: 104px sans-serif;" transform="rotate(950 268.25378,223.81528)" x="268.25378" y="223.81528">
Logo
</text>
<path d="M499.99976,500.00018" fill="none" stroke="black" stroke-width="1"/>
<text fill="black" style="font: 105px sans-serif;" transform="rotate(960.0001 316.25052,181.73541)" x="316.25052" y="181.73541">
Logo
</text>
<path d="M499.99976,500.00018" fill="none" stroke="black" stroke-width="1"/>
<text fill="black" style="font: 106px sans-serif;" transform="rotate(970.0002 371.90295,148.05356)" x="371.90295" y="148.05356">
Logo
</text>
<path d="M499.99976,500.00018" fill="none" stroke="black" stroke-width="1"/>
<text fill="black" style="font: 107px sans-serif;" transform="rotate(980.0002 433.7314,124.16443)" x="433.7314" y="124.16443">
Logo
</text>
<path d="M499.99976,500.00018" fill="none" stroke="black" stroke-width="1"/>
<text fill="black" style="font: 108px sans-serif;" transform="rotate(990.0003 500.00174,111.200195)" x="500.00174" y="111.200195">
Logo
</text>
<path d="M499.99976,500.00018" fill="none" stroke="black" stroke-width="1"/>
<text fill="black" style="font: 109px sans-serif;" transform="rotate(1000.0003 568.7726,109.98392)" x="568.7726" y="109.98392">
Logo
</text>
<path d="M499.99976,500.00018" fill="none" stroke="black" stroke-width="1"/>
<text fill="black" style="font: 110px sans-serif;" transform="rotate(1010.00037 637.9505,120.99179)" x="637.9505" y="120.99179">
Logo
</text>
<path d="M499.99976,500.00018" fill="none" stroke="black" stroke-width="1"/>
<text fill="black" style="font: 111px sans-serif;" transform="rotate(1020.0004 705.35254,144.32516)" x="705.35254" y="144.32516">
Logo
</text>
<path d="M499.99973,500.00018" fill="none" stroke="black" stroke-width="1"/>
<text fill="black" style="font: 112px sans-serif;" transform="rotate(1030.0005 768.77344,179.69385)" x="768.77344" y="179.69385">
Logo
</text>
<path d="M499.9997,500.00018" fill="none" stroke="black" stroke-width="1"/>
<text fill="black" style="font: 113px sans-serif;" transform="rotate(1040.0005 826.0564,226.4115)" x="826.0564" y="226.4115">
Logo
</text>
<path d="M499.9997,500.00018" fill="none" stroke="black" stroke-width="1"/>
<text fill="black" style="font: 114px sans-serif;" transform="rotate(1050.0006 875.1642,283.40417)" x="875.1642" y="283.40417">
Logo
</text>
<path d="M499.99966,500.00018" fill="none" stroke="black" stroke-width="1"/>
<text fill="black" style="font: 115px sans-serif;" transform="rotate(1060.0006 914.24927,349.23108)" x="914.24927" y="349.23108">
Logo
</text>
<path d="M499.9997,500.00018" fill="none" stroke="black" stroke-width="1"/>
<text fill="black" style="font: 116px sans-serif;" transform="rotate(1070.0007 941.7197,422.1187)" x="941.7197" y="422.1187">
Logo
</text>
<path d="M499.99966,500.00018" fill="none" stroke="black" stroke-width="1"/>
<text fill="black" style="font: 117px sans-serif;" transform="rotate(1080.0007 956.2997,500.0063)" x="956.2997" y="500.0063">
Logo
</text>
<path d="M499.9997,500.00018" fill="none" stroke="black" stroke-width="1"/>
<text fill="black" style="font: 118px sans-serif;" transform="rotate(1090.0009 957.0807,580.60266)" x="957.0807" y="580.60266">
Logo
</text>
<path d="M499.99973,500.0002" fill="none" stroke="black" stroke-width="1"/>
<text fill="black" style="font: 119px sans-serif;" transform="rotate(1100.0009 943.5635,661.4519)" x="943.5635" y="661.4519">
Logo
</text>
<path d="M499.9997,500.00024" fill="none" stroke="black" stroke-width="1"/>
<text fill="black" style="font: 120px sans-serif;" transform="rotate(1110.0009 915.688,740.00696)" x="915.688" y="740.00696">
Logo
</text>
<path d="M499.99966,500.00024" fill="none" stroke="black" stroke-width="1"/>
<text fill="black" style="font: 121px sans-serif;" transform="rotate(1120.001 873.8495,813.7084)" x="873.8495" y="813.7084">
Logo
</text>
<path d="M499.99963,500.0002" fill="none" stroke="black" stroke-width="1"/>
<text fill="black" style="font: 122px sans-serif;" transform="rotate(1130.001 818.9011,880.06616)" x="818.9011" y="880.06616">
Logo
</text>
<path d="M499.9996,500.00024" fill="none" stroke="black" stroke-width="1"/>
<text fill="black" style="font: 123px sans-serif;" transform="rotate(1140.001 752.14136,936.7416)" x="752.14136" y="936.7416">
Logo
</text>
<path d="M499.99963,500.0002" fill="none" stroke="black" stroke-width="1"/>
<text fill="black" style="font: 124px sans-serif;" transform="rotate(1150.0011 675.2868,981.62744)" x="675.2868" y="981.62744">
Logo
</text>
<path d="M499.99963,500.00018" fill="none" stroke="black" stroke-width="1"/>
<text fill="black" style="font: 125px sans-serif;" transform="rotate(1160.0011 590.4307,1012.9227)" x="590.4307" y="1012.9227">
Logo
</text>
<path d="M499.9996,500.00018" fill="none" stroke="black" stroke-width="1"/>
<text fill="black" style="font: 126px sans-serif;" transform="rotate(1170.0012 499.98813,1029.2002)" x="499.98813" y="1029.2002">
Logo
</text>
<path d="M499.9996,500.00018" fill="none" stroke="black" stroke-width="1"/>
<text fill="black" style="font: 127px sans-serif;" transform="rotate(1180.0013 406.6286,1029.4636)" x="406.6286" y="1029.4636">
Logo
</text>
<path d="M499.99963,500.00024" fill="none" stroke="black" stroke-width="1"/>
<text fill="black" style="font: 128px sans-serif;" transform="rotate(1190.0013 313.19897,1013.19336)" x="313.19897" y="1013.19336">
Logo
</text>
<path d="M499.99963,500.00024" fill="none" stroke="black" stroke-width="1"/>
<text fill="black" style="font: 129px sans-serif;" transform="rotate(1200.0013 222.63788,980.37775)" x="222.63788" y="980.37775">
Logo
</text>
<path d="M499.99963,500.00024" fill="none" stroke="black" stroke-width="1"/>
<text fill="black" style="font: 130px sans-serif;" transform="rotate(1210.0015 137.88504,931.5294)" x="137.88504" y="931.5294">
Logo
</text>
<path d="M499.99963,500.00024" fill="none" stroke="black" stroke-width="1"/>
<text fill="black" style="font: 131px sans-serif;" transform="rotate(1220.0015 61.78705,867.6847)" x="61.78705" y="867.6847">
Logo
</text>
<path d="M499.99963,500.00027" fill="none" stroke="black" stroke-width="1"/>
<text fill="black" style="font: 132px sans-serif;" transform="rotate(1230.0015 -2.9957886,790.3866)" x="-2.9957886" y="790.3866">
Logo
</text>
<path d="M499.99963,500.00027" fill="none" stroke="black" stroke-width="1"/>
<text fill="black" style="font: 133px sans-serif;" transform="rotate(1240.0016 -54.08014,701.6512)" x="-54.08014" y="701.6512">
Logo
</text>
<path d="M499.99963,500.00024" fill="none" stroke="black" stroke-width="1"/>
<text fill="black" style="font: 134px sans-serif;" transform="rotate(1250.0016 -89.443665,603.91736)" x="-89.443665" y="603.91736">
Logo
</text>
<path d="M499.99963,500.00024" fill="none" stroke="black" stroke-width="1"/>
<text fill="black" style="font: 135px sans-serif;" transform="rotate(1260.0017 -107.50037,499.98206)" x="-107.50037" y="499.98206">
Logo
</text>
<path d="M499.99963,500.00024" fill="none" stroke="black" stroke-width="1"/>
<text fill="black" style="font: 136px sans-serif;" transform="rotate(1270.0017 -107.16382,392.92163)" x="-107.16382" y="392.92163">
Logo
</text>
<path d="M499.99963,500.00024" fill="none" stroke="black" stroke-width="1"/>
<text fill="black" style="font: 137px sans-serif;" transform="rotate(1280.0018 -87.89661,286.00235)" x="-87.89661" y="286.00235">
Logo
</text>
<path d="M499.99963,500.00024" fill="none" stroke="black" stroke-width="1"/>
<text fill="black" style="font: 138px sans-serif;" transform="rotate(1290.0018 -49.74292,182.58228)" x="-49.74292" y="182.58228">
Logo
</text>
<path d="M499.99963,500.00024" fill="none" stroke="black" stroke-width="1"/>
<text fill="black" style="font: 139px sans-serif;" transform="rotate(1300.0018 6.6553955,86.00699)" x="6.6553955" y="86.00699">
Logo
</text>
<path d="M499.99963,500.00024" fill="none" stroke="black" stroke-width="1"/>
<text fill="black" style="font: 140px sans-serif;" transform="rotate(1310.002 80.06235,-0.49658203)" x="80.06235" y="-0.49658203">
Logo
</text>
<path d="M499.99963,500.00024" fill="none" stroke="black" stroke-width="1"/>
<text fill="black" style="font: 141px sans-serif;" transform="rotate(1320.002 168.66998,-73.926575)" x="168.66998" y="-73.926575">
Logo
</text>
<path d="M499.99963,500.00024" fill="none" stroke="black" stroke-width="1"/>
<text fill="black" style="font: 142px sans-serif;" transform="rotate(1330.0021 270.13947,-131.60687)" x="270.13947" y="-131.60687">
Logo
</text>
<path d="M499.99963,500.00024" fill="none" stroke="black" stroke-width="1"/>
<text fill="black" style="font: 143px sans-serif;" transform="rotate(1340.0021 381.66028,-171.28198)" x="381.66028" y="-171.28198">
Logo
</text>
<path d="M499.99963,500.00024" fill="none" stroke="black" stroke-width="1"/>
</svg>